<svg width="144" height="56" viewBox="0 0 144 56" fill="none" xmlns="http://www.w3.org/2000/svg">
<rect width="144" height="56" rx="28" fill="#B1C909"/>
<path d="M29.3079 15.5449C28.9093 15.9271 28.896 16.5601 29.2782 16.9588C29.6604 17.3574 30.2935 17.3707 30.6921 16.9885L29.3079 15.5449ZM30.6921 39.0115C30.2935 38.6293 29.6604 38.6426 29.2782 39.0412C28.896 39.4399 28.9093 40.0729 29.3079 40.4551L30.6921 39.0115ZM24 27C23.4477 27 23 27.4477 23 28C23 28.5523 23.4477 29 24 29V27ZM46 28L46.7071 28.7071C47.0976 28.3166 47.0976 27.6834 46.7071 27.2929L46 28ZM39.2929 33.2929C38.9024 33.6834 38.9024 34.3166 39.2929 34.7071C39.6834 35.0976 40.3166 35.0976 40.7071 34.7071L39.2929 33.2929ZM40.7071 21.2929C40.3166 20.9024 39.6834 20.9024 39.2929 21.2929C38.9024 21.6834 38.9024 22.3166 39.2929 22.7071L40.7071 21.2929ZM55 28C55 36.3158 48.4872 43 40.5227 43V45C49.6539 45 57 37.3573 57 28H55ZM40.5227 13C48.4872 13 55 19.6842 55 28H57C57 18.6427 49.6539 11 40.5227 11V13ZM30.6921 16.9885C33.2781 14.5089 36.7316 13 40.5227 13V11C36.1867 11 32.2448 12.7288 29.3079 15.5449L30.6921 16.9885ZM40.5227 43C36.7316 43 33.2781 41.4911 30.6921 39.0115L29.3079 40.4551C32.2448 43.2712 36.1867 45 40.5227 45V43ZM24 29H46V27H24V29ZM45.2929 27.2929L39.2929 33.2929L40.7071 34.7071L46.7071 28.7071L45.2929 27.2929ZM46.7071 27.2929L40.7071 21.2929L39.2929 22.7071L45.2929 28.7071L46.7071 27.2929Z" fill="white"/>
<path d="M78.9 27.74C80.78 28.2 81.78 29.36 81.78 31.18C81.78 33.58 80.02 35 76.58 35H70.18V21H76.2C79.24 21 81.08 22.26 81.08 24.6C81.08 26.14 80.26 27.22 78.9 27.74ZM72.16 22.58V27.16H76.06C77.98 27.16 79.06 26.38 79.06 24.88C79.06 23.38 77.98 22.58 76.06 22.58H72.16ZM76.54 33.42C78.64 33.42 79.76 32.66 79.76 31.02C79.76 29.4 78.64 28.68 76.54 28.68H72.16V33.42H76.54ZM93.6014 35H91.4214L88.3614 30.94L85.2614 35H83.1214L87.3014 29.58L83.3214 24.4H85.4614L88.3814 28.22L91.2814 24.4H93.3814L89.3814 29.58L93.6014 35ZM99.8102 35.12C96.6302 35.12 94.2902 32.86 94.2902 29.7C94.2902 26.54 96.6302 24.3 99.8102 24.3C102.99 24.3 105.31 26.54 105.31 29.7C105.31 32.86 102.99 35.12 99.8102 35.12ZM99.8102 33.44C101.85 33.44 103.37 31.96 103.37 29.7C103.37 27.44 101.85 25.98 99.8102 25.98C97.7702 25.98 96.2302 27.44 96.2302 29.7C96.2302 31.96 97.7702 33.44 99.8102 33.44ZM117.165 33.32H118.785V37.46H116.985V35H108.125V37.46H106.305V33.32H106.865C108.385 33.24 108.645 30.66 108.785 27.98L108.945 24.4H117.165V33.32ZM110.545 28.12C110.465 30.32 110.265 32.48 109.305 33.32H115.245V26.08H110.645L110.545 28.12Z" fill="white"/>
</svg>
